<svg enable-background="new 0 0 91 91" viewBox="0 0 91 91" xmlns="http://www.w3.org/2000/svg"><g fill="#4e7a9e"><path d="m31.2 38.7c2.6 2.3 6.6-.6 4.9-3.8-1.9-3.4-5.2-6.3-8.1-8.9-2.8-2.5-5.7-5.3-9.2-6.7-1.7-.7-3.4 1.7-2.4 3.1 2 2.9 4.9 5.2 7.4 7.8 2.5 2.7 4.7 6 7.4 8.5z"/><path d="m73.5 19.9c-3 2.3-5.8 4.9-8.5 7.5-1.8 1.7-3.5 3.4-5.3 5.1-1 .9-2.5 2-2.7 3.4-.4 2.3 1.3 4.3 3.7 3.7 1.5-.3 2.4-1.8 3.3-2.9 1.6-1.9 3.2-3.7 4.9-5.6 2.5-2.9 4.9-5.8 7-8.9.9-1.3-1-3.4-2.4-2.3z"/><path d="m55.1 58.1c-2-2-4-4.2-6.3-6-1.4-1.1-2.8-1.7-4.5-.9s-2.9 2.9-4 4.3c-1.6 2-3.1 3.9-4.7 5.8-3.2 3.8-6.4 7.6-10 10.9-1.6 1.4.4 3.9 2.2 2.9 4.1-2.3 7.6-5.1 10.9-8.5 1.6-1.7 3.1-3.4 4.6-5.2.7-.8 1.4-1.6 2.1-2.4.3-.3.5-.6.8-.9.9.9 1.7 2 2.5 2.8 1.6 1.6 3.1 3.3 4.7 4.9 3 3.1 6.1 6.1 9.1 9.2 3.2 3.2 8.2-1.8 5-5-4.2-3.9-8.3-7.9-12.4-11.9z"/></g></svg>