<svg enable-background="new 0 0 91 91" viewBox="0 0 91 91" xmlns="http://www.w3.org/2000/svg"><path d="m90.4 36.9c-2-10.1-17.1-6.3-21.2-.1-.7 1.1.7 2.2 1.7 1.7.1-.1.3-.1.4-.2 1 4.2 8.7 6.5 12.4 6.3 4.2-.2 7.6-3.3 6.7-7.7zm-10.5 1.2c-1.1-.7-2.1-1.6-3.1-2.3 3.4-1.2 7.2-1.7 8.7 1.1 2 3.7-4.2 2.1-5.6 1.2z" fill="#90bed0"/><path d="m83 20.6c5.2-3.4 3.8-10.4.5-14.7-3.8-4.8-10.6-3.5-15.3-.9-5.7 3.2-9.9 9-11.3 15.3-.3 1.3 1.4 2.1 2.2 1 .6.6 1.4 1.1 2.6 1.2 6.4.8 15.6 1.8 21.3-1.9zm-16.3-9.8c2.8-2.5 8.8-6 12.6-3.5 1.6 1.1 2.6 4.1 2.6 6 0 2.7-2.5 3.1-4.7 3.3-4.8.5-9.6 0-14.2-1.5 1.1-1.5 2.2-3 3.7-4.3z" fill="#90bed0"/><g fill="#4e7a9e"><path d="m14.1 50.2c.8-3.2.3-6.8.2-10.1-.1-3.2.1-6.7-1.1-9.8-.9-2.3-3.6-2.2-4.6 0-1.3 3-1.1 6.5-1.3 9.8s-.8 6.8 0 10.1c.8 3.4 6 3.3 6.8 0z"/><path d="m54.3 50.2c.8-3.2.3-6.8.2-10.1-.1-3.2.1-6.7-1.1-9.8-.9-2.3-3.6-2.2-4.6 0-1.3 3-1.1 6.5-1.3 9.8s-.8 6.8 0 10.1c.8 3.4 5.9 3.3 6.8 0z"/><path d="m54.9 73.8c-.2-2.3-.1-5.3-.9-7.6-1.8-5.1-9.6-3-13.6-2.8-6.2.3-12.5.7-18.7 1.1-2.9.2-5.8.4-8.7.7-1.5.1-2.9.3-4.3.5-1.9.3-3.8 1-5.6 1.1-1.6.1-1.6 2.6 0 2.5 1.4 0 2.9.3 4.4.5-.4.4-.7 1-.8 1.7-.4 2.9-.8 5.8-1.2 8.7-.2 1.8-.6 3.5.4 5.2 1.3 2 3.3 2.1 5.4 2.1 2.7 0 5.4-.1 8.1-.1 11-.2 22.1-.2 33.1-.6 1.7-.1 3.7-1.5 3.4-3.4-.4-3.3-.7-6.4-1-9.6zm-24.3 6c-3.5 0-7.1 0-10.6.1-1.7 0-3.3 0-5 0-.6 0-1.4.1-2.2.1.1-.7.1-1.3.2-2 .2-1.9.4-3.7.6-5.6.1-1-.2-1.7-.8-2.3h2c4 0 7.9 0 11.8-.1 3.7-.1 7.5-.1 11.2-.2 2.1 0 4.2-.1 6.2-.2 1.2 0 2.7-.3 4-.3.4 1.9.2 4.9.3 6.2.1 1.4.2 2.8.4 4.2-6 0-12 .1-18.1.1z"/></g></svg>