<svg enable-background="new 0 0 91 91" viewBox="0 0 91 91" xmlns="http://www.w3.org/2000/svg"><path d="m55.4 53.6c2.1-2.1 3.2-4.8 1.7-8-2.3-4.7-10.3-5.5-13.3-1.3-.6.8.1 1.8.8 2.1 2.3.8 5.3-1 7.4.4 3.6 2.3-.8 5.2-3.2 5.9-2.7.8-1.6 4.9 1.2 4.2 3.7-.9 6.1 2.8 4.4 6-1.7 3-5.3 3.2-8 1.7-3.7-2-8.1 3.1-4.6 6 2.8 2.4 7.6 1.7 10.8.3 3.1-1.4 5.7-4 6.6-7.4.9-3.9-.8-7.9-3.8-9.9z" fill="#4e7a9e"/><path d="m33.2 20.9c-2.8 1.5-5.1 3.9-7.1 6.4-2.4-3.1-5.6-6.2-9.3-6.3-1.7 0-2.5 2.1-1.3 3.2 2.9 3 6 5.3 8.3 8.9 1.1 1.8 3.4 1.6 4.6 0 2.3-3.1 5.3-5.3 8.3-7.8 2.4-2.1-.8-5.9-3.5-4.4z" fill="#4e7a9e"/><path d="m71.9 21.7c-2.8 1.5-5.1 3.9-7.1 6.4-2.4-3.1-5.6-6.2-9.3-6.3-1.7 0-2.5 2.1-1.3 3.2 2.9 3 6 5.3 8.3 8.9 1.1 1.8 3.4 1.6 4.6 0 2.3-3.1 5.3-5.3 8.3-7.8 2.5-2.1-.7-5.9-3.5-4.4z" fill="#4e7a9e"/><g fill="#f0adab"><path d="m10.4 52.1c1.4-1.4 2.8-2.7 4.2-4.1s3.4-2.7 3.4-4.8c0-1.2-1-2.2-2.2-2.2-2.3.1-3.5 2.2-4.8 3.8-1.2 1.6-2.2 3.5-3.2 5.3-.7 1.6 1.3 3.4 2.6 2z"/><path d="m21.2 52.8c1.4-1.1 2.8-2.2 4.2-3.3 1.3-1.1 3.1-2.2 3.8-3.8 1-2.2-1.1-4.9-3.5-3.5-1.7.9-2.6 2.9-3.6 4.4s-2 3.1-2.9 4.7c-.9 1.2.9 2.3 2 1.5z"/><path d="m65.6 52.1c1.4-1.4 2.8-2.7 4.2-4.1s3.4-2.7 3.4-4.8c0-1.2-1-2.2-2.2-2.2-2.3.1-3.5 2.2-4.8 3.8-1.2 1.6-2.2 3.5-3.2 5.3-.7 1.6 1.3 3.4 2.6 2z"/><path d="m76.4 52.8c1.4-1.1 2.8-2.2 4.2-3.3 1.3-1.1 3.1-2.2 3.8-3.8 1-2.2-1.1-4.9-3.5-3.5-1.7.9-2.6 2.9-3.6 4.4s-2 3.1-2.9 4.7c-.9 1.2.9 2.3 2 1.5z"/></g></svg>