<svg enable-background="new 0 0 91 91" viewBox="0 0 91 91" xmlns="http://www.w3.org/2000/svg"><g fill="#4e7a9e"><path d="m15.1 18.9c-1.3 3-1.1 6.5-1.3 9.8s-.8 6.8 0 10.1c.8 3.4 5.9 3.3 6.8 0 .8-3.2.3-6.8.2-10.1-.1-3.2.1-6.7-1.1-9.8-.9-2.2-3.7-2.2-4.6 0z"/><path d="m55.1 18.9c-1.3 3-1.1 6.5-1.3 9.8s-.8 6.8 0 10.1c.8 3.4 5.9 3.3 6.8 0 .8-3.2.3-6.8.2-10.1-.1-3.2.1-6.7-1.1-9.8-.9-2.2-3.7-2.2-4.6 0z"/><path d="m11.8 67c3.4 1 7.3.5 10.8.3 3.9-.2 7.8-.4 11.7-.3 3.7 0 7.4.1 11.1.3 4.1.2 8.6.2 12.5 1.2 5.3 1.4 6.3-7.4 1-7.3-4.1.1-8.2-.6-12.3-.7-4.1-.2-8.2-.2-12.3 0-3.9.2-7.8.5-11.7 1-3.6.4-8 .9-11.1 2.9-1.1.7-.9 2.3.3 2.6z"/></g><path d="m82.4 26.7c-.1-.2-.2-.4-.3-.6.1-1.2.1-2.3-.3-3.3-.3-.7-1.2-1.3-1.9-.8-1.6 1-2.2 2.6-3 4.3-1.5 3.3-2.6 6.9-3.8 10.3-2.7 7.8-6.9 18.1-3.2 26.1 1.9 4.1 6 7.3 10.6 5.9 4.8-1.4 7.4-5.7 8-10.5 1.3-10.5-3.1-21.4-6.1-31.4zm-3.5 36c-4.8.7-4.2-8.3-3.7-10.8 1-5.2 2.6-10.4 4.1-15.5.4 1.1.7 2.1 1.1 3.1 1.4 4.2 2.3 8.3 2.5 12.7.1 3.2.4 9.9-4 10.5z" fill="#90bed0"/></svg>