<svg enable-background="new 0 0 91 91" viewBox="0 0 91 91" xmlns="http://www.w3.org/2000/svg"><g fill="#4e7a9e"><path d="m81 25.9c-.8-4.1-4.2-6.7-8.4-6.2-3.1.4-5.4 2.2-7.2 4.5-1.6-2.3-3.7-4.3-6.5-4.9-4.3-1.1-8.1 2.4-9.1 6.3-2.2 8.6 5.7 19 13.2 22.8.7.9 1.8 1.3 2.9.5 6.3-4.6 16.8-14.1 15.1-23zm-5.9 6.3c-2.7 5-6.9 8.5-11 12.1-3.2-3.4-6.8-6.3-8.7-10.9-1-2.5-2.1-6.6.2-8.7 2.9-2.7 6.2 2.3 7 4.8.7 2 3.3 2.4 4.4.6 1.4-2.2 3-5.1 5.9-5.6 5-.9 3.5 5.3 2.2 7.7z"/><path d="m23.9 48.9c6.4-4.6 16.8-14.1 15.1-23-.8-4.1-4.2-6.7-8.4-6.2-3.1.4-5.4 2.2-7.2 4.5-1.6-2.3-3.7-4.3-6.5-4.9-4.3-1.1-8.1 2.4-9.1 6.3-2.2 8.6 5.7 19 13.2 22.8.7.8 1.8 1.3 2.9.5zm-10.4-15.5c-1-2.5-2.1-6.6.2-8.7 2.9-2.7 6.2 2.3 7 4.8.7 2 3.3 2.4 4.4.6 1.4-2.2 3-5.1 5.9-5.6 5-.9 3.5 5.3 2.2 7.7-2.7 5-6.9 8.5-11 12.1-3.2-3.4-6.8-6.3-8.7-10.9z"/><path d="m64.3 57.4c-7.2-.5-14.4-.5-21.6-.5-3.8 0-7.5.1-11.2.4-1.5.1-3 .2-4.6.3-3.5-3.3-9.1 2.5-5.6 6.5 4.7 5.4 9.8 10.2 15.4 14.7 2.3 1.9 5 4.5 8.3 4 2.4-.4 4-2.3 5.6-4 5.2-5.4 10.5-10.9 15.9-16.2 2-1.9.4-5-2.2-5.2zm-15.8 14.5c-1.1 1.1-2.1 2.3-3.3 3.3-1 .8-1.2.9-2.3.1s-2.1-2.1-3.1-3.1c-2.8-2.9-5.6-5.9-8.2-8.9h.8c3.6 0 7.2-.1 10.8-.1 4.6 0 9.2.1 13.9.2-2.9 2.8-5.8 5.6-8.6 8.5z"/></g></svg>