<svg enable-background="new 0 0 91 91" viewBox="0 0 91 91" xmlns="http://www.w3.org/2000/svg"><g fill="#4e7a9e"><path d="m24.8 30.9v2.4c0 2.6-.2 5.3.3 7.9.6 3.3 5.4 2.3 5.6-.8.1-2.1-.3-4.2-.4-6.2-.1-1-.1-1.9-.2-2.9 0-.2 0-.3-.1-.5 2.2 0 4.3-.1 6.4-.5 2.8-.5 2.9-5.4 0-5.8-4.1-.6-8.3-.1-12.5 0-4 .1-8.5 0-12.2 1.4-2 .7-2.2 3.6 0 4.2 3.9 1.2 8.3.9 12.3.8z"/><path d="m78.3 24.5c-4.1-.6-8.3-.1-12.5 0-4 .1-8.5 0-12.2 1.4-2 .7-2.2 3.6 0 4.2 3.8 1.2 8.3.9 12.2.8h.8v2.4c0 2.6-.2 5.3.3 7.9.6 3.3 5.4 2.3 5.6-.8.1-2.1-.3-4.2-.4-6.2-.1-1-.1-1.9-.2-2.9 0-.2 0-.3-.1-.5 2.2 0 4.3-.1 6.4-.5 2.9-.5 3-5.4.1-5.8z"/><path d="m69.4 62.7c-8.4-1.1-16.8-1.8-25.3-1.6-4.1.1-8.1.4-12.2.9-3.6.5-8.7.8-11.7 3.1-1.1.9-1 2.4.4 3 3.3 1.3 7.8.5 11.3.4 3.8-.1 7.7-.2 11.5-.2 8 .1 16 .6 23.9 1.7 2.1.3 4.1-.5 4.7-2.7.6-1.7-.6-4.3-2.6-4.6z"/></g></svg>