<svg enable-background="new 0 0 91 91" viewBox="0 0 91 91" xmlns="http://www.w3.org/2000/svg"><g fill="#4e7a9e"><path d="m32 20.3c-2.8 2.5-5.5 5.7-8.5 8-2.7-2.6-9.3-11.6-11.1-8.1-.9 1.8 1 3.9 2 5.2 1.6 2.2 3.3 4.2 5 6.3 1.6 2 3.6 3.7 6.1 2.1 3.9-2.5 7.5-6 11-8.9 3.3-2.6-1.4-7.4-4.5-4.6z"/><path d="m71 20.3c-2.8 2.5-5.5 5.7-8.5 8-2.7-2.6-9.3-11.6-11.1-8.1-.9 1.8 1 3.9 2 5.2 1.6 2.2 3.3 4.2 5 6.3 1.6 2 3.6 3.7 6.1 2.1 3.9-2.5 7.5-6 11-8.9 3.4-2.6-1.3-7.4-4.5-4.6z"/><path d="m66.2 40.4c-.7-3.2-6-2.5-5.7.8 0 .6.1 1.1.2 1.7-1.6 3-2.5 6.7-3.6 9.7-1.4 3.8-2.6 7.6-3.2 11.6-1 6-.6 14.6 7.1 15.5 7.6.9 11.4-7.4 11.3-13.8-.1-4.1-1.4-8.2-2.6-12.1-1.4-4.5-2.5-8.9-3.5-13.4zm.5 28.5c-.6 2.7-2.7 5.8-5.9 5.3-5.7-.9-1.7-13.2-.8-16.3.7-2.3 1.7-4.7 2.5-7.3.9 2.8 2 5.5 3 8.3 1.1 3.2 2 6.7 1.2 10z"/></g></svg>