<svg enable-background="new 0 0 91 91" viewBox="0 0 91 91" xmlns="http://www.w3.org/2000/svg"><g fill="#4e7a9e"><path d="m88.9 82.8c-4.9-3.8-10.3-6.7-15.9-8.9.2-1.9 0-3.9 0-5.8 0-3 0-6.1-.1-9.1 0-4.3.2-9-.3-13.4 6.1-1.3 12.4-3.5 16.9-8 3-3-1.6-7.6-4.7-4.7-4.5 4.4-11.5 5.7-17.4 6.7-7.3 1.2-14.7 1.4-22.1 1.2-8.5-.2-17-1.2-25.1-3.5-5.5-1.6-10.6-3.8-15.9-6-1.6-.7-2.9 1.5-2.1 2.8 3.3 5.3 10.5 7.9 16.2 9.7h.1c0 .5-.1.9-.1 1.4-.5 3.9-.8 7.8-1 11.7-.2 3.8-.4 7.5-.6 11.3 0 .9-.2 2-.2 3-6 2.2-11.4 6.1-15.6 10.9-1.5 1.8.4 4.6 2.6 3.3 5.3-3.1 10.3-6.6 16.2-8.4 5.7-1.8 11.7-2 17.7-2 16 0 33.3 2.2 46.4 12.5 3.6 2.9 8.5-2 5-4.7zm-65.3-13.3c0-.4 0-.7 0-1 .1-3.8.2-7.7.2-11.5.1-3.8 0-7.7-.2-11.5 0-.1 0-.2 0-.3 7.3 1.7 14.8 2.6 22.3 2.7 7.1.1 14.3-.2 21.4-1.3-.5 4.1-.5 8.4-.7 12.5-.2 2.8-.3 5.6-.5 8.5-.1 1.4-.2 2.7-.3 4.1-8.9-2.4-18.4-3.2-27.7-3.2-4.8 0-9.7.2-14.5 1z"/><path d="m28.4 25.6c-.5 1.2-.6 2.5-.7 3.8-.2 1.2-.5 2.6-.3 3.8.1 1.5 1 2.7 2.6 2.9 1.3.2 3-.7 3.2-2.1.3-1.4.2-2.8.1-4.3 0-1.4-.1-2.8-.4-4.1-.8-2.3-3.7-2-4.5 0z"/><path d="m63.2 35c.9-1.6.7-3.3.6-5-.1-1.6 0-3.2-.5-4.7-.6-1.8-3.5-2.7-4.5-.6-.8 1.6-.9 3.3-1.1 5-.2 1.9-.6 3.5.2 5.3.9 2.2 4.2 1.9 5.3 0z"/><path d="m13 21.1c7.5-3.2 14.6-7 21.2-11.9 3.9-2.8-.4-8.4-4-5.2-5.9 5.2-12 10.3-18.4 15-1.3 1-.2 2.8 1.2 2.1z"/><path d="m78.4 20.6c.7-.1 1-1.1.7-1.6-1.6-2.7-4.3-4.3-6.6-6.3-2.6-2.3-4.9-4.8-6.9-7.5-3.3-4.3-9.5.3-6 4.6 4 4.8 11.9 12.1 18.8 10.8z"/></g></svg>