<svg enable-background="new 0 0 91 91" viewBox="0 0 91 91" xmlns="http://www.w3.org/2000/svg"><g fill="#4e7a9e"><path d="m66.3 30.9c1.9-2 3.8-4.1 5.6-6.2 1.8-2 3.9-4.1 5.2-6.5 1.9-3.5-2.5-6.6-5.4-4.2-2.1 1.8-3.7 4.3-5.3 6.5-1.7 2.2-3.4 4.5-5 6.8-1.8 2.8 2.5 6 4.9 3.6z"/><path d="m31.1 27.2c-1.6-2.3-3.3-4.5-5-6.8-1.6-2.2-3.2-4.7-5.3-6.5-2.9-2.5-7.3.6-5.4 4.2 1.3 2.4 3.4 4.5 5.2 6.5 1.9 2.1 3.7 4.2 5.6 6.2 2.5 2.5 6.9-.7 4.9-3.6z"/><path d="m34.4 53.2c1.6-.8 2.5-2.3 3.9-3.4 1.8-1.4 3.7-2.2 6-2.5 4.1-.4 8.7 1.1 10.2 5.3.9 2.7 5.6 2.5 5.3-.7-.6-6.9-8.1-10.5-14.4-10.4-5.1.1-14.8 4.2-13.2 10.8.2 1 1.3 1.3 2.2.9z"/><path d="m10.7 38.2c5.3 2.8 9.3 8.5 9.5 14.6.2 6.4-3.6 13.2-8.9 16.6-4.2 2.7.5 9 4.2 5.5 6.4-6.1 11.5-13.7 10.7-23-.8-8-5.9-15.5-14.1-17-1.9-.4-3.4 2.3-1.4 3.3z"/><path d="m81.7 36.3c-8.2 1.5-13.3 9.1-14.1 17-.9 9.2 4.3 16.9 10.7 23 3.6 3.4 8.5-2.7 4.2-5.5-5.4-3.4-9.1-10.3-8.9-16.6.2-6.1 4.2-11.8 9.5-14.6 1.9-1 .5-3.7-1.4-3.3z"/></g></svg>