<svg enable-background="new 0 0 91 91" viewBox="0 0 91 91" xmlns="http://www.w3.org/2000/svg"><g fill="#c8bbdb"><path d="m57.2 9.1c-.6 1.6-.6 3.5-.7 5.2-.2 2.4-.5 4.9-.4 7.3.2 3.6 5.2 3.5 5.5 0 .2-2.4 0-4.9-.1-7.3-.1-1.7 0-3.5-.5-5.2-.6-1.9-3.1-1.8-3.8 0z"/><path d="m68.3 8.5c-1 1.6-.7 4.4-.7 6.2 0 2.4-.6 5.8.3 8.1.6 1.7 3 1.8 3.5 0 .7-2.3-.1-5.7-.2-8.1-.1-1.8 0-4.7-1.1-6.2-.5-.7-1.4-.7-1.8 0z"/><path d="m82.9 36.6c0-3.9-.1-7.8-.3-11.6-.1-3.9-.2-7.7-.9-11.6-.3-1.6-.3-3.8-1.6-5-.4-.4-.9-.4-1.3 0-1.2 1.1-1.3 3.2-1.6 4.8-.6 3.9-.7 7.8-.8 11.8-.1 3.8-.1 7.6-.1 11.4 0 2.3-.5 5.7 1.9 7 0 0 0 0 0-.1.9.5 2.1.5 3 0 .2-.1.3-.2.5-.4 0 0 .1-.1.1-.1 1.6-1.4 1.2-4.2 1.1-6.2z"/></g><path d="m39.6 60.8c-9.9 1.1-18.6 7.8-22.2 17.2-.8 2.1 2.1 3.4 3.5 2 2.9-2.7 5.2-5.8 8.3-8.3 3-2.5 6.5-3.9 10.4-4.3 6.8-.7 13.3 2.1 17.9 6.9-8.3 0-16.5.1-24.8.1-4.6 0-4.6 7.1 0 7.1 10.6 0 21.3 0 31.9-.1 2.7 0 4.4-3 3.1-5.4-5.7-9.8-16.7-16.4-28.1-15.2z" fill="#4e7a9e"/><path d="m32.3 45.7c3.2-5 1.3-10.8-2.8-14.6-1.3-1.2-2.5-1.3-3.5-.7-1.7-1.2-3.8-1.7-6.3-1.5-3.2.3-6 2.1-7.9 4.7-4.2 5.8-2 14.1 4.3 17.3 6.1 3 12.7.3 16.2-5.2zm-14.6-8.2c1.4-2.3 4-2.6 6.6-2.7.3.8.9 1.5 2.1 1.7 2.4.3 2.2 4.6 1.3 6.1-1.7 2.7-5.2 3.8-7.9 2.2s-3.8-4.6-2.1-7.3z" fill="#4e7a9e"/><path d="m68.3 31.1c-1.3-1.2-2.5-1.3-3.5-.7-1.7-1.2-3.8-1.7-6.3-1.5-3.2.3-6 2.1-7.9 4.7-4.2 5.8-2 14.1 4.3 17.3 6.1 3 12.7.3 16.2-5.2 3.3-5 1.3-10.8-2.8-14.6zm-1.8 11.5c-1.7 2.7-5.2 3.8-7.9 2.2-2.6-1.6-3.7-4.5-2-7.2 1.4-2.3 4-2.6 6.6-2.7.3.8.9 1.5 2.1 1.7 2.3.2 2.1 4.5 1.2 6z" fill="#4e7a9e"/></svg>