<svg xmlns="http://www.w3.org/2000/svg" id="Layer_2" width="800" height="800" data-name="Layer 2" viewBox="0 0 500 500"><defs><style>.cls-1,.cls-4{fill:#2d140a;fill-rule:evenodd}.cls-4{fill:#eaa5ab}</style></defs><path d="M86.76 135.48C201.47 2.9 487.67 42.75 457.49 312.5c-16.36 146.25-130.19 194.29-266.94 170C24.28 453 6.06 236.06 86.76 135.48Z" class="cls-1"/><path d="M99.92 149.89c-71.5 89.16-54.92 284.87 98 312C323.17 484.13 423.67 448 438.76 313 466.71 62.9 204 29.34 99.92 149.89Z" style="fill:#fced8d;fill-rule:evenodd"/><path d="M145.42 232.63a10.85 10.85 0 1 1-21.7.17v-.8c.11-8.9 4.89-18.33 13.52-25.36 7.81-6.37 19-11 32.67-11.3h1.9c12.71.07 23.23 3.35 31 8.75 9.15 6.38 14.49 15.56 15.36 26.06a10.89 10.89 0 1 1-21.71 1.7 13.39 13.39 0 0 0-6.06-9.85c-4.3-3-10.59-4.81-18.67-4.86h-1.31c-8.42.2-15 2.82-19.47 6.44-3.54 2.89-5.49 6.11-5.53 8.74ZM303.52 232.63a10.85 10.85 0 1 1-21.7.17v-.8c.11-8.9 4.89-18.33 13.52-25.36 7.81-6.37 19-11 32.67-11.3h1.91c12.7.07 23.22 3.35 31 8.75 9.15 6.38 14.49 15.56 15.36 26.06a10.89 10.89 0 1 1-21.71 1.7 13.39 13.39 0 0 0-6.07-9.85c-4.3-3-10.59-4.81-18.67-4.86h-1.31c-8.42.2-15 2.82-19.47 6.44-3.54 2.89-5.49 6.11-5.53 8.74ZM325.61 332.41a9.05 9.05 0 0 1 15.18 9.86 82.06 82.06 0 0 1-18.79 20.4c-18.72 14.49-43.31 21.24-68.13 21.11-24.6-.13-49.6-7-69.41-19.83a94.4 94.4 0 0 1-23.56-21.35 9.05 9.05 0 0 1 14.33-11.06 76.32 76.32 0 0 0 19.09 17.23c16.9 10.93 38.38 16.81 59.62 16.92 21 .11 41.61-5.43 57-17.35a64.11 64.11 0 0 0 14.67-15.93Z" class="cls-1"/><path d="M250 11.5c114.33 0 207 32.81 207 73.28s-92.69 73.27-207 73.27-207-32.8-207-73.27S135.67 11.5 250 11.5Zm0 31.12c-85 0-153.91 16.71-153.91 37.32S165 117.26 250 117.26s153.91-16.71 153.91-37.32S335 42.62 250 42.62Z" style="fill:#1fc3f3;fill-rule:evenodd"/><path d="M384.33 265c16.94 3.15 27.4 14.16 29.68 23.24 6.23 24.85-76.67 15.1-81.87 11.27-23.63-17.46 22.42-40.05 52.19-34.51Z" class="cls-4"/><path d="M355.23 263.9a4.5 4.5 0 1 1 8.6 2.67l-8.44 26.94a4.5 4.5 0 1 1-8.6-2.66ZM382.8 262.11a4.49 4.49 0 0 1 8.21 3.65l-13.93 31.14a4.5 4.5 0 0 1-8.22-3.65Z" class="cls-1"/><path d="M146.58 265c16.94 3.15 27.41 14.16 29.68 23.24 6.24 24.85-76.67 15.1-81.86 11.27-23.64-17.46 22.41-40.05 52.18-34.51Z" class="cls-4"/><path d="M117.48 263.9a4.5 4.5 0 1 1 8.6 2.67l-8.44 26.94a4.5 4.5 0 1 1-8.6-2.66ZM145.05 262.11a4.49 4.49 0 1 1 8.21 3.65l-13.93 31.14a4.5 4.5 0 0 1-8.22-3.65Z" class="cls-1"/></svg>