<svg xmlns="http://www.w3.org/2000/svg" id="Layer_2" width="800" height="800" data-name="Layer 2" viewBox="0 0 500 500"><defs><style>.cls-1,.cls-3{fill:#2d140a;fill-rule:evenodd}.cls-3{fill:#eaa5ab}</style></defs><path d="M94.11 112.34C207.06-18.22 482.08 21 450 286.68 432.61 430.72 324.45 478 191.62 454.1 30.12 425 14.56 211.4 94.11 112.34Z" class="cls-1"/><path d="M107.3 126.59c-70.47 87.8-58.3 279.53 90.15 306.25 121.72 21.9 218.84-13.71 234.88-146.67C462.05 39.9 209.81 7.87 107.3 126.59Z" style="fill:#fced8d;fill-rule:evenodd"/><path d="M401.67 286.78a9.07 9.07 0 0 1 10.43 14.83c-8 5.66-18.35 8.71-29.14 9.35a76.88 76.88 0 0 1-31.45-4.78c-10.25-3.9-19.29-10.14-25.21-18.52a38.44 38.44 0 0 1-7.11-20.18 9.06 9.06 0 1 1 18.09-1.06 20.64 20.64 0 0 0 3.84 10.81c3.71 5.25 9.77 9.3 16.84 12a58.65 58.65 0 0 0 23.94 3.64c7.57-.45 14.6-2.44 19.77-6.09ZM193 380.18a9.06 9.06 0 0 1-15.68-9.08c7.57-13.09 16.89-15.61 26.12-13.46 7.52 1.75 13.86 6.94 18.79 11.2.06.05.63-.25 1.67-.49a13 13 0 0 0 6.39-3.63 37 37 0 0 1 11.4-8.81 20.71 20.71 0 0 1 12.32-1.8c5.33.88 9.06 4.09 13.11 7.58 4.28 3.69 9.38 8.09 17.51-1.56a15.83 15.83 0 0 1 3.26-3 22.89 22.89 0 0 1 15-3.47 32.12 32.12 0 0 1 17.5 7.83 49.79 49.79 0 0 1 9 10.06 9.06 9.06 0 0 1-15 10.22 31.78 31.78 0 0 0-5.64-6.45 14.28 14.28 0 0 0-7.64-3.64 5.13 5.13 0 0 0-3 .37c-19.76 23.23-32.35 12.39-42.9 3.29a40.33 40.33 0 0 0-4.18-3.4 3.28 3.28 0 0 0-1.82.39 19.66 19.66 0 0 0-5.66 4.62 32.06 32.06 0 0 1-15.6 9c-6.34 1.48-12.84.66-17.64-3.48-3.36-2.91-7.58-6.42-11-7.23-1.78-.35-3.89.69-6.31 4.94Zm-99.32-78.57a9.06 9.06 0 0 1 10.42-14.83c5.18 3.65 12.21 5.64 19.78 6.09a58.7 58.7 0 0 0 23.94-3.64c7.07-2.7 13.13-6.75 16.83-12a20.56 20.56 0 0 0 3.85-10.81 9.06 9.06 0 1 1 18.09 1.06 38.44 38.44 0 0 1-7.11 20.18c-5.92 8.38-15 14.62-25.21 18.52a76.93 76.93 0 0 1-31.46 4.82c-10.81-.68-21.11-3.73-29.13-9.39Z" class="cls-1"/><path d="M158.25 315.11c16.53-1.56 29.14 5.88 33.66 13.7 12.35 21.39-67.1 34.27-72.93 32.09-26.53-9.9 10.2-43.04 39.27-45.79Z" class="cls-3"/><path d="M131 321.8a4.34 4.34 0 1 1 8.68.2l-.7 27.21a4.34 4.34 0 1 1-8.68-.2Zm25.06-8.95a4.33 4.33 0 0 1 8.58 1.22L160 346.63a4.34 4.34 0 0 1-8.59-1.22Z" class="cls-1"/><path d="M367.83 321.16c15.1 6.91 22.3 19.66 22.3 28.69 0 24.7-75.24-3.86-79.2-8.67-18.01-21.86 30.35-32.18 56.9-20.02Z" class="cls-3"/><path d="M340.86 313.32a4.34 4.34 0 1 1 7.42 4.51L334.07 341a4.34 4.34 0 1 1-7.42-4.51Zm26.21 4.79a4.33 4.33 0 1 1 6.82 5.35l-20.34 25.84a4.33 4.33 0 1 1-6.82-5.34Zm-34.15-101.45a5.42 5.42 0 0 1 7.24-8.08L367.4 233a5.42 5.42 0 1 1-7.23 8.09Zm-170.7-8.08a5.42 5.42 0 1 1 7.23 8.08l-27.24 24.39A5.42 5.42 0 0 1 135 233Z" class="cls-1"/></svg>