<svg width="143" height="113" viewBox="0 0 143 113" fill="none" xmlns="http://www.w3.org/2000/svg">
<path d="M86.5508 29.1406C86.5508 24.4965 86.673 19.8281 86.5263 15.184C86.3062 8.76494 84.5943 6.3578 78.8473 4.31537C72.7335 2.15137 66.4241 0.887007 59.9923 0.522288C55.1991 0.254827 50.4303 -0.450294 45.5882 0.425032C39.3276 1.56782 36.8577 4.68009 38.2272 11.2693C38.9119 14.5275 40.208 17.6884 41.4797 20.7764C48.1805 37.0672 54.9301 53.3336 61.7287 69.5758C66.2529 80.3958 70.8505 91.1915 75.4481 101.987C76.0594 103.397 76.7442 104.783 77.6001 106.048C79.6055 109.063 82.6868 108.795 84.2031 105.488C84.6677 104.516 84.8144 103.349 84.9367 102.23C85.059 100.966 84.9856 99.7016 85.0101 98.4372C85.3525 81.8061 85.6704 65.1749 86.0617 48.568C86.2084 42.1003 86.5508 35.6083 86.8198 29.1406C86.7464 29.1406 86.6486 29.1406 86.5752 29.1406H86.5508ZM79.043 90.7052C78.5783 90.8268 78.1137 90.9727 77.6246 91.0942C76.5975 88.9059 75.4236 86.7662 74.5432 84.5293C70.8505 74.998 67.4512 65.3207 63.5873 55.8624C57.8403 41.7356 51.7998 27.7303 45.9306 13.6522C45.1969 11.9015 44.1209 10.1266 45.0991 7.5249C46.9577 7.25744 49.0608 6.6982 51.1151 6.72252C54.5877 6.77115 58.0848 6.98998 61.5086 7.57353C66.5219 8.44886 71.4619 9.71322 76.4263 10.8074C78.8718 11.3423 80.0946 12.8255 80.0701 15.5487C79.9967 21.3113 80.0701 27.0739 79.9967 32.8607C79.7033 50.6347 79.3364 68.4087 79.0185 86.1827C78.9941 87.6902 79.0185 89.1977 79.0185 90.7052H79.043Z" fill="black"/>
<path d="M28.8853 48.6652C24.0431 48.8111 20.6439 50.5374 17.5625 52.823C12.647 56.4702 7.80485 60.2633 3.10944 64.2266C-0.778954 67.509 -1.07243 71.3264 2.5225 75.1195C7.34018 80.2013 12.3535 85.0885 17.5625 89.7083C25.5349 96.7838 33.7519 103.592 41.871 110.522C43.9008 112.248 45.9795 113.561 48.8163 112.759C50.5527 112.248 51.4086 111.275 51.2863 109.5C51.164 107.677 51.0173 105.829 50.5282 104.103C46.8844 91.2887 43.1671 78.4993 39.4255 65.7341C38.2761 61.8437 37.1756 57.9048 35.7572 54.1117C34.4122 50.5131 31.8444 48.4464 28.8853 48.6895V48.6652ZM42.727 99.5314C42.3601 99.7989 42.0178 100.042 41.6509 100.309C35.9284 95.5438 30.1325 90.8754 24.4833 85.9882C18.7852 81.0523 12.5002 76.7243 7.97601 69.7217C13.1605 65.7827 17.8804 61.8681 22.9182 58.464C27.7603 55.1815 28.9831 55.8867 30.8173 61.6735C34.4366 73.0041 38.1049 84.3104 41.7243 95.6411C42.14 96.9054 42.3846 98.2427 42.7025 99.5314H42.727Z" fill="black"/>
<path d="M108.243 44.8721C108.976 56.9565 109.734 69.0409 110.492 81.1252C110.615 82.9974 110.737 84.894 112.914 85.4532C114.894 85.9881 116.557 85.1858 117.756 82.7057C119.443 79.1801 121.057 75.6058 122.427 71.9586C127.513 58.4397 133.48 45.3827 139.692 32.3987C140.646 30.3806 141.502 28.3139 142.358 26.2471C143.629 23.1592 142.994 20.4603 140.621 18.2233C139.814 17.4696 139.032 16.6429 138.127 16.1079C132.453 12.9227 126.853 9.61594 121.033 6.77114C116.484 4.55851 113.452 5.87149 112.009 10.9776C110.541 16.2052 109.563 21.6517 109.123 27.0982C108.634 32.9823 109.025 38.9151 109.025 44.8478C108.781 44.8478 108.536 44.8478 108.291 44.8721H108.243ZM116.484 73.4661C116.215 73.4175 115.946 73.3689 115.677 73.3202C115.457 71.8614 115.041 70.4025 115.017 68.9436C114.919 56.5431 114.748 44.1427 114.943 31.7666C115.017 26.5875 115.824 21.4085 116.582 16.2538C117.193 12.1447 118.245 11.6341 121.669 13.482C125.606 15.573 129.494 17.7857 133.309 20.1199C138.127 23.0862 138.176 23.4996 135.926 28.7759C129.959 42.7811 123.992 56.7863 118 70.7672C117.584 71.7155 116.998 72.5665 116.484 73.4661Z" fill="black"/>
</svg>
