<svg height="800" viewBox="0 0 500 500" width="800" xmlns="http://www.w3.org/2000/svg"><g fill-rule="evenodd"><path d="m91.57 108.08c30.7-35.69 76.32-58.15 125.07-65.65 38.39-5.91 78.8-2.54 115.43 11 36.87 13.57 69.93 37.39 93.31 72.32 25.9 38.67 36.92 88.83 30.85 155.51q-1.26 14-3.61 26.71c-11.45 62.36-41.5 101.33-82.8 125.54-40.89 23.95-85.68 30.17-140.93 25.33-12.42-1.09-25-2.78-37.65-5-29.89-5.29-53.83-15.94-74.12-32-30.81-24.53-55.71-55.2-66.12-93.48-10.39-37.81-11.4-79.36-4.29-118.07s22.44-75 44.72-102z" fill="#2d140a"/><path d="m219.33 60.12c-44.68 6.88-86.33 27.32-114.26 59.73-20.35 24.79-34.38 58.11-41 94.05-6.66 36.28-5.71 75.13 4 110.52 20.93 76.58 95.93 114.13 173.78 117.71 112.64 5.17 180.93-49.29 196.77-161.81 5.68-62.46-4.18-108.91-28-144.5-21.19-31.64-51.2-53.26-84.72-65.62-33.77-12.44-71.08-15.54-106.57-10.08z" fill="#fced8d"/><path d="m160.48 173.7h34.44c5.75 0 10.46.52 10.46 6.27v37.03a27.77 27.77 0 0 1 -27.68 27.7 27.76 27.76 0 0 1 -27.7-27.7v-37c0-5.78 4.72-6.3 10.48-6.3z" fill="#2d140a"/><path d="m185 181.65h9.22c1.54 0 2.8.15 2.8 1.68v9.92a7.44 7.44 0 0 1 -7.41 7.41 7.43 7.43 0 0 1 -7.41-7.41v-9.92c.03-1.54 1.29-1.68 2.8-1.68z" fill="#fced8d"/><path d="m117.54 169.81h84.33a7.91 7.91 0 0 1 7.9 7.89 7.92 7.92 0 0 1 -7.9 7.9h-84.33a7.92 7.92 0 0 1 -7.89-7.9 7.91 7.91 0 0 1 7.89-7.89zm205.07 2.66h33.08c5.53 0 10.06.5 10.06 6v35.59a26.68 26.68 0 0 1 -26.6 26.59 26.67 26.67 0 0 1 -26.59-26.59v-35.56c0-5.5 4.52-6.03 10.05-6.03z" fill="#2d140a"/><path d="m346.2 180.11h8.85c1.48 0 2.69.14 2.69 1.62v9.52a7.14 7.14 0 0 1 -7.12 7.12 7.13 7.13 0 0 1 -7.11-7.12v-9.52c0-1.48 1.21-1.62 2.69-1.62z" fill="#fced8d"/><path d="m281.36 168.73h81a7.6 7.6 0 0 1 7.58 7.58 7.6 7.6 0 0 1 -7.58 7.59h-81a7.61 7.61 0 0 1 -7.59-7.59 7.6 7.6 0 0 1 7.59-7.58z" fill="#2d140a"/><path d="m373.09 266.27c16 3 25.9 13.43 28 22 5.87 23.52-72.55 14.18-77.46 10.55-22.3-16.52 21.3-37.82 49.46-32.55z" fill="#eaa5ab"/><path d="m345.56 265.2a4.26 4.26 0 1 1 8.13 2.54l-8 25.48a4.26 4.26 0 1 1 -8.13-2.54zm26.08-1.65a4.25 4.25 0 0 1 7.77 3.47l-13.23 29.43a4.25 4.25 0 0 1 -7.77-3.46z" fill="#2d140a"/><path d="m170.26 266.27c16 3 25.91 13.43 28.05 22 5.86 23.52-72.55 14.18-77.46 10.55-22.34-16.52 21.26-37.82 49.41-32.55z" fill="#eaa5ab"/><path d="m142.73 265.21a4.26 4.26 0 0 1 8.14 2.53l-8 25.48a4.26 4.26 0 1 1 -8.13-2.54zm26.09-1.66a4.25 4.25 0 1 1 7.76 3.47l-13.22 29.43a4.25 4.25 0 0 1 -7.77-3.46zm13.39 74.53c-1.12-3.19.62-7.65 3.9-8.75s7.83-.38 8.95 2.81c4.61 13.31 19.64 22.53 36 26.11 14.47 3.16 30 1.69 40.17-2.15-8.55-9.75-13.52-21.2-16.22-33.8-8.91-41.44 47-63.8 67.85-23.53 4.78 12.1 7.1 19.81 8.82 34.66 0 2.92 0 6.82-1.65 9.67-18.22 31.17-125.97 53.8-147.82-5.02z" fill="#2d140a"/><path d="m296.09 351.12a74.84 74.84 0 0 0 20.8-12.21c5.09-4.23 4.38-5.35 3-11.37a104.46 104.46 0 0 0 -8.22-23.28c-5.66-11-15.57-19.1-33-10.56-10.63 5.93-13.91 14.75-11.46 26.11 1.58 7.37 7.54 20.2 13.56 28.29 5.31 7.09 7.54 5.9 15.32 3.02z" fill="#ee4861"/><path d="m289.73 320.58a3.44 3.44 0 0 1 1.77-4.58 3.61 3.61 0 0 1 4.73 1.72l13.32 30.06a3.45 3.45 0 0 1 -1.77 4.61 3.61 3.61 0 0 1 -4.73-1.72z" fill="#2d140a"/></g></svg>