<?xml version="1.0" encoding="utf-8"?><!-- Uploaded to: SVG Repo, www.svgrepo.com, Generator: SVG Repo Mixer Tools -->
<svg width="800px" height="800px" viewBox="0 0 16 16" xmlns="http://www.w3.org/2000/svg" fill="#000000" class="bi bi-heptagon-fill">
  <path fill-rule="evenodd" d="M7.779.052a.5.5 0 0 1 .442 0l6.015 2.97a.5.5 0 0 1 .267.34l1.485 6.676a.5.5 0 0 1-.093.415l-4.162 5.354a.5.5 0 0 1-.395.193H4.662a.5.5 0 0 1-.395-.193L.105 10.453a.5.5 0 0 1-.093-.415l1.485-6.676a.5.5 0 0 1 .267-.34L7.779.053z"/>
</svg>