<svg height="800" viewBox="0 0 500 500" width="800" xmlns="http://www.w3.org/2000/svg"><g fill-rule="evenodd"><path d="m89.76 108.15c14.63-17 34.34-31.15 56.18-42.15a257.06 257.06 0 0 1 74.78-23.8 235.58 235.58 0 0 1 57.93-1.67 220.64 220.64 0 0 1 55.42 12.47 185.28 185.28 0 0 1 51.24 28.8 192.58 192.58 0 0 1 40.19 43.82c12.85 19.19 22 41.19 27.18 66.62 5.11 25.11 6.33 53.55 3.38 85.93q-.63 7-1.48 13.25-.88 6.48-2 12.77c-9.82 53.51-36.88 93.7-74.18 120-39.82 28-91.19 40-145.53 35.28q-8.36-.74-18-2t-18.37-2.83a178.54 178.54 0 0 1 -40.37-11.91 149.6 149.6 0 0 1 -33.53-20.12 229.35 229.35 0 0 1 -43.6-45.22c-11-15.39-19.75-32.28-24.69-50.39a338.58 338.58 0 0 1 -11.19-62.77c-1.43-18.78-.94-37.66 2.33-55.46a249.2 249.2 0 0 1 16.62-54.93 193.9 193.9 0 0 1 27.41-45.35z" fill="#2d140a"/><path d="m154.84 83.55c-19.59 9.82-37.18 22.4-50.09 37.39l-.1.1a174.3 174.3 0 0 0 -24.65 40.86 229.08 229.08 0 0 0 -15.27 50.5c-2.93 15.95-3.36 33.15-2 50.42a316.3 316.3 0 0 0 10.44 58.75c4.29 15.69 12 30.61 21.84 44.31a209.31 209.31 0 0 0 39.79 41.23 130.9 130.9 0 0 0 29.34 17.61 159.53 159.53 0 0 0 36 10.57q9.24 1.63 17.38 2.72t17 1.86c49.71 4.36 96.46-6.45 132.43-31.78 33.31-23.45 57.51-59.5 66.34-107.62q1.05-5.69 1.88-11.8t1.4-12.35c2.75-30.25 1.64-56.69-3.08-79.87-4.66-22.88-12.84-42.61-24.32-59.74a172.5 172.5 0 0 0 -36.17-39.41 165.4 165.4 0 0 0 -45.88-25.78 201.07 201.07 0 0 0 -50.46-11.39 216.2 216.2 0 0 0 -53.06 1.58 236.8 236.8 0 0 0 -68.76 21.84z" fill="#fced8d"/><g fill="#2d140a"><path d="m137.05 214.48a11.82 11.82 0 0 1 -23-5.27c2.88-12.42 9-21.5 17.18-27.75 8.89-6.79 20-9.93 31.81-10.19 11.67-.26 22.13 2.09 30.93 8.28s15.4 15.83 19.17 30a11.81 11.81 0 0 1 -22.85 6c-2.22-8.36-5.62-13.69-9.92-16.72s-10.08-4.17-16.87-4c-7 .15-13.26 1.81-17.93 5.37-3.99 3.05-6.99 7.69-8.52 14.28z"/><path d="m311.78 215.44a11.82 11.82 0 0 1 -23-5.28c2.88-12.42 9-21.49 17.17-27.74 8.9-6.79 20-9.93 31.82-10.19 11.67-.26 22.13 2.09 30.93 8.28s15.4 15.83 19.17 30.05a11.81 11.81 0 0 1 -22.85 6c-2.22-8.36-5.62-13.69-9.93-16.72s-10.07-4.17-16.86-4c-7 .16-13.26 1.81-17.93 5.38-3.99 2.99-6.99 7.63-8.52 14.22z"/><path d="m203.21 320.87a11.82 11.82 0 0 1 23-5.28c1.53 6.59 4.53 11.23 8.47 14.24 4.67 3.57 11 5.22 17.94 5.38 6.79.15 12.55-1 16.86-4s7.7-8.36 9.92-16.73a11.82 11.82 0 1 1 22.86 6c-3.77 14.21-10.38 23.85-19.18 30s-19.26 8.53-30.93 8.27c-11.83-.26-22.91-3.39-31.81-10.18-8.15-6.2-14.25-15.28-17.13-27.7z"/></g><path d="m378.87 241.39c21.25 4 34.38 17.82 37.22 29.22 7.78 31.22-96.29 18.83-102.81 14-29.65-21.94 28.22-50.21 65.59-43.22z" fill="#eaa5ab"/><path d="m342.33 240a5.65 5.65 0 0 1 10.79 3.37l-10.64 33.81a5.66 5.66 0 0 1 -10.8-3.36z" fill="#2d140a"/><path d="m376.94 237.78a5.64 5.64 0 1 1 10.31 4.6l-17.55 39.07a5.64 5.64 0 0 1 -10.31-4.6z" fill="#2d140a"/><path d="m161.52 243.31c21.26 4 34.38 17.82 37.23 29.22 7.78 31.22-96.29 18.83-102.81 14-29.65-21.94 28.21-50.21 65.58-43.22z" fill="#eaa5ab"/><path d="m125 241.89a5.66 5.66 0 0 1 10.8 3.37l-10.65 33.81a5.65 5.65 0 0 1 -10.79-3.36z" fill="#2d140a"/><path d="m159.6 239.7a5.64 5.64 0 1 1 10.31 4.6l-17.56 39.07a5.64 5.64 0 1 1 -10.3-4.6z" fill="#2d140a"/></g></svg>