<svg height="800" viewBox="0 0 500 500" width="800" xmlns="http://www.w3.org/2000/svg"><g fill-rule="evenodd"><path d="m94.88 112.34c113.68-130.56 388.48-91.34 354.93 174.34-18.19 144.04-126.61 191.32-259.31 167.41-161.34-29.09-175.71-242.69-95.62-341.75z" fill="#2d140a"/><path d="m105.9 124.78c-72 89.1-60.76 283.65 89.76 310.76 123.34 22.22 222.13-13.91 239.16-148.82 31.53-249.9-224.23-282.4-328.92-161.94z" fill="#fced8d"/><path d="m149.08 281.24c10.07 1.88 16.29 8.45 17.64 13.85 3.69 14.8-45.64 8.92-48.73 6.64-14.05-10.4 13.38-23.8 31.09-20.49z" fill="#eaa5ab"/><path d="m210.43 288.7c14.36 4.5 35.6 7.52 50.45 4.55 8.3-1.65 23.67-5.68 30.76-10.84a6 6 0 0 1 9 2.39 223.49 223.49 0 0 1 15.22 50.46c2.61 15.63 3.54 35.75-6.29 49.21-21.48 29.42-76.38 30.43-97.89 1-18-24.61-14.09-63.57-9-92.09a6 6 0 0 1 7.68-4.65z" fill="#2d140a"/><path d="m208.64 294.41s30 9.38 53.41 4.71 33.15-11.9 33.15-11.9 29.38 66.59 9.57 93.72-69.83 26.17-88.23 1c-15.92-21.82-13.35-57.23-7.9-87.53z" fill="#ee4861"/><path d="m127.89 280.32a2.72 2.72 0 1 1 5.19 1.62l-5.08 16.27a2.72 2.72 0 0 1 -5.2-1.62z" fill="#2d140a"/><path d="m144.54 279.27a2.72 2.72 0 1 1 5 2.21l-8.45 18.79a2.72 2.72 0 1 1 -5-2.21z" fill="#2d140a"/><path d="m377.62 281c10.23 1.91 16.54 8.57 17.91 14.06 3.74 15-46.32 9.06-49.46 6.74-14.26-10.56 13.57-24.16 31.55-20.8z" fill="#eaa5ab"/><g fill="#2d140a"><path d="m360 280.32a2.72 2.72 0 0 1 5.2 1.62l-5.12 16.27a2.72 2.72 0 0 1 -5.2-1.62z"/><path d="m376.7 279.27a2.71 2.71 0 1 1 4.95 2.21l-8.44 18.79a2.72 2.72 0 1 1 -5-2.21z"/><path d="m170.54 192.72c16.17.46 23.1 13.26 22.69 33.16s-6 36.11-25.13 35.94-24.48-18.51-24.1-38.41 10.36-31.16 26.54-30.69z"/></g><path d="m181.56 204.12c2.76-.23 5.11 2.74 5.27 6.64s-1.94 7.23-4.69 7.46-5.11-2.74-5.27-6.63 1.94-7.24 4.69-7.47z" fill="#fced8d"/><path d="m317.63 192.72c16.17.46 23.1 13.26 22.69 33.16s-6 36.11-25.13 35.94-24.48-18.51-24.08-38.41 10.34-31.16 26.52-30.69z" fill="#2d140a"/><path d="m328.65 204.12c2.76-.23 5.11 2.74 5.27 6.64s-1.94 7.23-4.69 7.46-5.11-2.74-5.27-6.63 1.94-7.24 4.69-7.47z" fill="#fced8d"/><path d="m265.6 386.57c1.2-10 4.9-9.84 11.82-20.57 4.11-6.36 4.27-15.18-6.87-18.93a14.9 14.9 0 0 0 -16.62 5.41c-1.89-4.38-5.66-6.16-10.63-6.45-8.1-.48-15 8.22-13.34 16.06 2.42 11.19 14.25 22.74 35.64 24.48z" fill="#eaa5ab"/></g></svg>